<svg width="111" height="111" viewBox="0 0 111 111" fill="none" xmlns="http://www.w3.org/2000/svg">
<g clip-path="url(#clip0_1_61)">
<path d="M75.5 0.75H35.5C16.17 0.75 0.5 16.42 0.5 35.75V75.75C0.5 95.08 16.17 110.75 35.5 110.75H75.5C94.83 110.75 110.5 95.08 110.5 75.75V35.75C110.5 16.42 94.83 0.75 75.5 0.75Z" fill="url(#paint0_linear_1_61)"/>
<path d="M79.9789 67.339L79.8599 63.6041C79.851 63.2925 79.7807 62.9857 79.653 62.7013C79.5253 62.417 79.3427 62.1606 79.1158 61.9469C78.8888 61.7333 78.6219 61.5666 78.3304 61.4562C78.0389 61.3459 77.7285 61.2941 77.4169 61.304L76.91 61.319C75.9554 57.2266 73.8105 53.5084 70.7459 50.6331L70.7139 50.6031C68.8248 48.818 66.6258 47.3926 64.2249 46.397L70.774 46.1971C71.1496 47.1654 71.8556 47.9697 72.7672 48.4676C73.6787 48.9654 74.737 49.1248 75.7547 48.9174C76.7724 48.71 77.684 48.1492 78.3281 47.3344C78.9721 46.5196 79.3073 45.5031 79.274 44.465C79.2379 43.2974 78.7406 42.1917 77.8909 41.3901C77.4708 40.9919 76.9755 40.6816 76.4339 40.4772C75.8923 40.2729 75.3154 40.1786 74.737 40.2C73.5709 40.2336 72.466 40.729 71.665 41.5771C71.2178 42.0539 70.881 42.6234 70.6789 43.245L58.8879 43.5981L58.8749 43.198C58.8661 42.8864 58.7959 42.5796 58.6683 42.2952C58.5406 42.0108 58.358 41.7544 58.131 41.5407C57.9041 41.327 57.6372 41.1603 57.3456 41.05C57.0541 40.9397 56.7435 40.888 56.4319 40.898L52.6579 41.0031C52.3469 41.0115 52.0407 41.0812 51.7569 41.2085C51.4731 41.3358 51.2173 41.5182 51.0042 41.7448C50.7911 41.9714 50.6251 42.238 50.5156 42.5291C50.406 42.8202 50.3551 43.1302 50.3659 43.4411L50.379 43.841L38.588 44.195C38.2124 43.2266 37.5063 42.4223 36.5948 41.9245C35.6832 41.4266 34.6249 41.2673 33.6071 41.4747C32.5894 41.682 31.6778 42.2428 31.0338 43.0577C30.3897 43.8725 30.0547 44.8889 30.088 45.927C30.1202 46.9634 30.5174 47.955 31.2095 48.7271C31.9016 49.4992 32.8441 50.002 33.8708 50.1469C34.8975 50.2918 35.9423 50.0695 36.8211 49.5192C37.6999 48.9689 38.356 48.126 38.6739 47.1391L45.223 46.939C42.1703 48.4336 39.5164 50.6323 37.4802 53.3538C35.4439 56.0753 34.0834 59.2417 33.5109 62.5921L32.8809 62.611C32.2518 62.6311 31.6565 62.9 31.2253 63.3586C30.7941 63.8171 30.5624 64.4279 30.581 65.0571L30.6999 68.8071C30.7087 69.1187 30.7789 69.4255 30.9066 69.7099C31.0342 69.9943 31.2168 70.2507 31.4438 70.4644C31.6708 70.6781 31.9377 70.8448 32.2293 70.9551C32.5209 71.0654 32.8313 71.1171 33.1429 71.1071L36.894 70.995C37.523 70.9747 38.1183 70.7057 38.5494 70.2472C38.9805 69.7888 39.2122 69.1781 39.1939 68.549L39.0749 64.798C39.0662 64.4864 38.9961 64.1795 38.8685 63.8951C38.7409 63.6106 38.5584 63.3541 38.3314 63.1404C38.1044 62.9267 37.8374 62.7599 37.5457 62.6497C37.2541 62.5395 36.9435 62.488 36.6319 62.4981H36.524C37.2475 58.9854 38.9749 55.758 41.4968 53.2079C44.0186 50.6578 47.2264 48.8945 50.7309 48.132C50.855 48.3992 51.0299 48.6397 51.2459 48.84C51.473 49.0538 51.7401 49.2206 52.0318 49.3307C52.3236 49.4409 52.6343 49.4924 52.946 49.4821L56.697 49.37C57.156 49.3555 57.601 49.2079 57.9777 48.9451C58.3545 48.6824 58.6467 48.3158 58.8189 47.8901C62.3684 48.4409 65.6826 50.0077 68.3609 52.4012C71.0392 54.7947 72.9672 57.9126 73.9119 61.3781L73.681 61.3851C73.052 61.4054 72.4567 61.6744 72.0256 62.1329C71.5945 62.5913 71.3626 63.202 71.3809 63.8311L71.4999 67.5811C71.5087 67.8927 71.579 68.1995 71.7066 68.4839C71.8343 68.7683 72.0169 69.0248 72.2438 69.2385C72.4708 69.4521 72.7377 69.6189 73.0292 69.7292C73.3208 69.8395 73.6314 69.891 73.9429 69.881L77.6939 69.7691C78.0037 69.7602 78.3087 69.6901 78.5914 69.563C78.874 69.436 79.1288 69.2544 79.3411 69.0286C79.5534 68.8028 79.719 68.5374 79.8284 68.2475C79.9379 67.9575 79.9891 67.6488 79.9789 67.339ZM36.2259 68.0971L33.597 68.1761L33.5129 65.547L36.1419 65.4681L36.2259 68.0971ZM74.8089 43.137C75.0966 43.1288 75.3803 43.2062 75.6241 43.3592C75.8679 43.5122 76.061 43.734 76.1788 43.9966C76.2966 44.2593 76.3338 44.5508 76.2859 44.8346C76.2381 45.1185 76.1072 45.3818 75.9097 45.5912C75.7123 45.8007 75.4572 45.9469 75.1767 46.0114C74.8962 46.0759 74.6029 46.0559 74.3338 45.9538C74.0647 45.8517 73.8318 45.6722 73.6647 45.4378C73.4976 45.2034 73.4038 44.9247 73.395 44.637C73.3896 44.4455 73.4221 44.2549 73.4908 44.0761C73.5594 43.8973 73.6629 43.7337 73.795 43.595C74.06 43.3156 74.424 43.1511 74.8089 43.137ZM34.5259 47.2751C34.2382 47.2832 33.9546 47.2059 33.7108 47.0529C33.4669 46.8999 33.274 46.6782 33.1562 46.4156C33.0384 46.153 33.001 45.8613 33.0489 45.5774C33.0968 45.2936 33.2277 45.0303 33.4251 44.8208C33.6225 44.6114 33.8776 44.4652 34.1581 44.4007C34.4386 44.3361 34.732 44.3562 35.0012 44.4583C35.2703 44.5604 35.503 44.7401 35.6701 44.9744C35.8372 45.2088 35.9311 45.4874 35.9399 45.7751C35.9457 45.9666 35.9139 46.1573 35.8459 46.3365C35.7779 46.5156 35.6752 46.6796 35.5438 46.819C35.4123 46.9584 35.2547 47.0707 35.0799 47.1491C34.9051 47.2275 34.7165 47.2706 34.525 47.276L34.5259 47.2751ZM53.399 46.5561L53.3149 43.927L55.9439 43.8481L55.9859 45.1551L56.0279 46.4621L53.399 46.5561ZM74.405 66.944L74.321 64.315L76.9499 64.2371L77.034 66.866L74.405 66.944Z" fill="white"/>
</g>
<defs>
<linearGradient id="paint0_linear_1_61" x1="95" y1="101.75" x2="19" y2="8.25" gradientUnits="userSpaceOnUse">
<stop stop-color="#25D9D9"/>
<stop offset="1" stop-color="#25D9D9" stop-opacity="0.5"/>
</linearGradient>
<clipPath id="clip0_1_61">
<rect width="110" height="110" fill="white" transform="translate(0.5 0.75)"/>
</clipPath>
</defs>
</svg>
