<svg width="111" height="111" viewBox="0 0 111 111" fill="none" xmlns="http://www.w3.org/2000/svg">
<g clip-path="url(#clip0_1_75)">
<path d="M75.5 0.75H35.5C16.17 0.75 0.5 16.42 0.5 35.75V75.75C0.5 95.08 16.17 110.75 35.5 110.75H75.5C94.83 110.75 110.5 95.08 110.5 75.75V35.75C110.5 16.42 94.83 0.75 75.5 0.75Z" fill="url(#paint0_linear_1_75)"/>
<g clip-path="url(#clip1_1_75)">
<path d="M68.1875 39.1875V36.75H43.8125V39.1875H36.5V47.7188C36.5 54.6281 41.7547 60.3304 48.4771 61.0464C49.9269 63.258 51.6529 64.8061 53.5625 65.5302V68.4375C53.5625 69.7836 52.4712 70.875 51.125 70.875C48.4327 70.875 46.25 73.0575 46.25 75.75H65.75C65.75 73.0575 63.5673 70.875 60.875 70.875C59.5288 70.875 58.4375 69.7836 58.4375 68.4375V65.5459C60.3512 64.8284 62.072 63.2594 63.5229 61.0464C70.2453 60.3304 75.5 54.6281 75.5 47.7188V39.1875H68.1875ZM41.375 47.7188V44.0625H43.8701C44.0563 48.1746 44.7153 51.9214 45.7391 55.1166C43.1482 53.6506 41.375 50.9016 41.375 47.7188H41.375ZM46.25 41.625V39.1875H48.6875V41.625C48.6875 52.8099 52.4104 62.0209 57.2188 63.3731C56.8187 63.4856 56.4137 63.5625 56 63.5625C50.6151 63.5625 46.25 53.7406 46.25 41.625V41.625ZM70.625 47.7188C70.625 50.9016 68.8518 53.6506 66.2609 55.1166C67.2847 51.9214 67.9436 48.1746 68.1299 44.0625H70.625V47.7188H70.625Z" fill="white"/>
</g>
</g>
<defs>
<linearGradient id="paint0_linear_1_75" x1="99" y1="100.25" x2="23" y2="0.750002" gradientUnits="userSpaceOnUse">
<stop stop-color="#FF9066"/>
<stop offset="1" stop-color="#FF9066" stop-opacity="0.5"/>
</linearGradient>
<clipPath id="clip0_1_75">
<rect width="110" height="110" fill="white" transform="translate(0.5 0.75)"/>
</clipPath>
<clipPath id="clip1_1_75">
<rect width="39" height="39" fill="white" transform="translate(36.5 36.75)"/>
</clipPath>
</defs>
</svg>
