<svg width="111" height="111" viewBox="0 0 111 111" fill="none" xmlns="http://www.w3.org/2000/svg">
<g clip-path="url(#clip0_1_53)">
<path d="M75.5 0.75H35.5C16.17 0.75 0.5 16.42 0.5 35.75V75.75C0.5 95.08 16.17 110.75 35.5 110.75H75.5C94.83 110.75 110.5 95.08 110.5 75.75V35.75C110.5 16.42 94.83 0.75 75.5 0.75Z" fill="url(#paint0_linear_1_53)"/>
<g clip-path="url(#clip1_1_53)">
<path d="M80.5 49.5002L78.8093 51.1909C77.8594 52.1409 76.7623 52.9315 75.5607 53.5324L71.9877 55.319L55.9313 39.2625L57.7179 35.6896C58.3187 34.4879 59.1095 33.3911 60.0594 32.4409L61.7501 30.7503C61.7501 30.7502 80.5 49.5002 80.5 49.5002Z" fill="white"/>
<path d="M67.759 59.9279C63.8344 66.124 64.8751 71.375 64.8751 71.375L30.5001 80.75L39.875 46.375C39.875 46.375 45.1261 47.4157 51.3222 43.4911C51.3223 43.4911 67.759 59.9279 67.759 59.9279ZM43.0001 63.5625C43.0001 66.1513 45.0988 68.25 47.6876 68.25C50.2764 68.25 52.375 66.1513 52.375 63.5625C52.375 60.9737 50.2764 58.875 47.6876 58.875C45.0988 58.875 43.0001 60.9737 43.0001 63.5625Z" fill="white"/>
</g>
</g>
<defs>
<linearGradient id="paint0_linear_1_53" x1="92" y1="110.75" x2="18" y2="9.25" gradientUnits="userSpaceOnUse">
<stop stop-color="#FFCC40"/>
<stop offset="1" stop-color="#FFCC40" stop-opacity="0.5"/>
</linearGradient>
<clipPath id="clip0_1_53">
<rect width="110" height="110" fill="white" transform="translate(0.5 0.75)"/>
</clipPath>
<clipPath id="clip1_1_53">
<rect width="50" height="50" fill="white" transform="matrix(0 -1 -1 0 80.5 80.75)"/>
</clipPath>
</defs>
</svg>
