<svg width="25" height="24" viewBox="0 0 25 24" fill="none" xmlns="http://www.w3.org/2000/svg">
<path d="M0 23.0451V8.89306C0 4.51644 3.07833 0.955078 6.86134 0.955078H18.137C21.9208 0.955078 25 4.51644 25 8.89306V11.3341C25 15.7107 21.9217 19.272 18.1387 19.272H7.02041L0 23.0451ZM6.86134 2.7248C3.92147 2.7248 1.52969 5.49189 1.52969 8.89306V20.2713L6.68332 17.5014H18.1387C21.0785 17.5014 23.4703 14.7343 23.4703 11.3331V8.89211C23.4703 5.49093 21.0777 2.72384 18.137 2.72384H6.86134V2.7248ZM7.36574 8.75862C8.16932 8.75862 8.82043 9.51189 8.82043 10.4416C8.82043 11.3712 8.16932 12.1245 7.36574 12.1245C6.56216 12.1245 5.91105 11.3712 5.91105 10.4416C5.91105 9.51189 6.56216 8.75862 7.36574 8.75862ZM17.6334 8.75862C18.437 8.75862 19.0881 9.51189 19.0881 10.4416C19.0881 11.3712 18.437 12.1245 17.6334 12.1245C16.8299 12.1245 16.1787 11.3712 16.1787 10.4416C16.1787 9.51189 16.8299 8.75862 17.6334 8.75862ZM12.4988 8.75862C13.3023 8.75862 13.9535 9.51189 13.9535 10.4416C13.9535 11.3712 13.3023 12.1245 12.4988 12.1245C11.6952 12.1245 11.0441 11.3712 11.0441 10.4416C11.0441 9.51189 11.6952 8.75862 12.4988 8.75862Z" fill="#B5C3CB"/>
</svg>
